<svg width="28" height="28" viewBox="0 0 28 28" fill="none" xmlns="http://www.w3.org/2000/svg">
<circle cx="14" cy="14" r="14" fill="white"/>
<circle cx="14" cy="14" r="13.5" stroke="black" stroke-opacity="0.2"/>
<path d="M19.1739 11.0476C18.7549 11.2338 18.3126 11.3502 17.847 11.42C18.3126 11.1407 18.6851 10.6984 18.848 10.163C18.4057 10.419 17.9169 10.6053 17.3814 10.7216C16.9624 10.2793 16.3572 10 15.7054 10C14.4483 10 13.424 11.0243 13.424 12.2813C13.424 12.4676 13.4473 12.6305 13.4938 12.7935C11.6082 12.7004 9.90888 11.7925 8.76821 10.3957C8.58198 10.7449 8.46558 11.1174 8.46558 11.5364C8.46558 12.3279 8.86132 13.0263 9.48986 13.4453C9.11739 13.422 8.76821 13.3289 8.4423 13.1659V13.1892C8.4423 14.3066 9.23379 15.2378 10.2813 15.4473C10.0951 15.4938 9.8856 15.5171 9.67609 15.5171C9.53641 15.5171 9.37346 15.4938 9.23379 15.4706C9.53641 16.3785 10.3745 17.0535 11.3755 17.0535C10.584 17.6588 9.60625 18.0313 8.53542 18.0313C8.34919 18.0313 8.16295 18.0313 8 18.008C9.02428 18.6598 10.2115 19.0323 11.5151 19.0323C15.7286 19.0323 18.0333 15.5404 18.0333 12.5141C18.0333 12.421 18.0333 12.3046 18.0333 12.2115C18.4756 11.9089 18.8713 11.5131 19.1739 11.0476Z" fill="black"/>
</svg>
