<svg width="36" height="36" viewBox="0 0 36 36" fill="none" xmlns="http://www.w3.org/2000/svg">
<g filter="url(#filter0_d_20_295)">
<circle cx="18" cy="14" r="14" fill="white"/>
<circle cx="18" cy="14" r="13.5" stroke="black" stroke-opacity="0.2"/>
<path d="M18.0008 8.44721C19.8095 8.44721 20.0237 8.45398 20.7382 8.48656C21.1678 8.49182 21.5933 8.5707 21.9962 8.71979C22.2884 8.83248 22.5538 9.00511 22.7753 9.22656C22.9967 9.44802 23.1694 9.71339 23.282 10.0056C23.4311 10.4085 23.51 10.8341 23.5153 11.2637C23.5475 11.9782 23.5546 12.1924 23.5546 14.0011C23.5546 15.8098 23.5479 16.024 23.5153 16.7385C23.51 17.1681 23.4311 17.5936 23.282 17.9966C23.1694 18.2888 22.9967 18.5541 22.7753 18.7756C22.5538 18.997 22.2884 19.1697 21.9962 19.2824C21.5933 19.4315 21.1678 19.5103 20.7382 19.5156C20.024 19.5479 19.8098 19.5549 18.0008 19.5549C16.1917 19.5549 15.9775 19.5482 15.2633 19.5156C14.8337 19.5103 14.4082 19.4315 14.0053 19.2824C13.7131 19.1697 13.4477 18.997 13.2262 18.7756C13.0048 18.5541 12.8322 18.2888 12.7195 17.9966C12.5704 17.5936 12.4915 17.1681 12.4862 16.7385C12.454 16.024 12.4469 15.8098 12.4469 14.0011C12.4469 12.1924 12.4537 11.9782 12.4862 11.2637C12.4915 10.8341 12.5704 10.4085 12.7195 10.0056C12.8322 9.71339 13.0048 9.44802 13.2262 9.22656C13.4477 9.00511 13.7131 8.83248 14.0053 8.71979C14.4082 8.5707 14.8337 8.49182 15.2633 8.48656C15.9779 8.4543 16.192 8.44721 18.0008 8.44721ZM18.0008 7.22656C16.162 7.22656 15.9304 7.2343 15.2079 7.26721C14.6456 7.27839 14.0893 7.38485 13.5627 7.58205C13.1109 7.75226 12.7017 8.019 12.3637 8.36366C12.0187 8.70184 11.7517 9.11127 11.5814 9.56334C11.3842 10.09 11.2777 10.6463 11.2666 11.2085C11.2343 11.9304 11.2266 12.162 11.2266 14.0008C11.2266 15.8395 11.2343 16.0711 11.2672 16.7937C11.2784 17.3559 11.3848 17.9122 11.582 18.4388C11.7522 18.8908 12.0189 19.3002 12.3637 19.6385C12.7019 19.9832 13.1113 20.25 13.5633 20.4201C14.09 20.6173 14.6463 20.7238 15.2085 20.7349C15.9311 20.7672 16.1617 20.7756 18.0014 20.7756C19.8411 20.7756 20.0717 20.7679 20.7943 20.7349C21.3565 20.7238 21.9128 20.6173 22.4395 20.4201C22.8893 20.2457 23.2978 19.9794 23.6389 19.6381C23.98 19.2968 24.246 18.8882 24.4201 18.4382C24.6173 17.9115 24.7238 17.3553 24.735 16.793C24.7672 16.0711 24.775 15.8395 24.775 14.0008C24.775 12.162 24.7672 11.9304 24.7343 11.2079C24.7231 10.6456 24.6167 10.0893 24.4195 9.56269C24.2493 9.11068 23.9826 8.70126 23.6379 8.36301C23.2996 8.01828 22.8902 7.75153 22.4382 7.5814C21.9115 7.3842 21.3553 7.27775 20.793 7.26656C20.0711 7.2343 19.8395 7.22656 18.0008 7.22656Z" fill="black"/>
<path d="M18.0021 10.5234C17.3141 10.5234 16.6416 10.7275 16.0695 11.1097C15.4974 11.492 15.0515 12.0353 14.7882 12.6709C14.5249 13.3066 14.4561 14.006 14.5903 14.6808C14.7245 15.3556 15.0558 15.9755 15.5423 16.462C16.0288 16.9485 16.6487 17.2798 17.3235 17.414C17.9983 17.5482 18.6977 17.4794 19.3334 17.2161C19.969 16.9528 20.5123 16.5069 20.8946 15.9348C21.2768 15.3627 21.4809 14.6902 21.4809 14.0021C21.4809 13.0795 21.1144 12.1947 20.462 11.5423C19.8096 10.8899 18.9248 10.5234 18.0021 10.5234ZM18.0021 16.2602C17.5555 16.2602 17.119 16.1278 16.7476 15.8797C16.3763 15.6315 16.0869 15.2789 15.916 14.8663C15.7451 14.4537 15.7003 13.9996 15.7875 13.5616C15.8746 13.1236 16.0897 12.7213 16.4055 12.4055C16.7213 12.0897 17.1236 11.8746 17.5616 11.7875C17.9996 11.7003 18.4537 11.7451 18.8663 11.916C19.2789 12.0869 19.6315 12.3763 19.8797 12.7476C20.1278 13.119 20.2602 13.5555 20.2602 14.0021C20.2602 14.601 20.0223 15.1754 19.5988 15.5988C19.1754 16.0223 18.601 16.2602 18.0021 16.2602Z" fill="black"/>
<path d="M21.6176 11.1981C22.0665 11.1981 22.4305 10.8341 22.4305 10.3852C22.4305 9.93621 22.0665 9.57227 21.6176 9.57227C21.1686 9.57227 20.8047 9.93621 20.8047 10.3852C20.8047 10.8341 21.1686 11.1981 21.6176 11.1981Z" fill="black"/>
</g>
<defs>
<filter id="filter0_d_20_295" x="0" y="0" width="36" height="36" filterUnits="userSpaceOnUse" color-interpolation-filters="sRGB">
<feFlood flood-opacity="0" result="BackgroundImageFix"/>
<feColorMatrix in="SourceAlpha" type="matrix" values="0 0 0 0 0 0 0 0 0 0 0 0 0 0 0 0 0 0 127 0" result="hardAlpha"/>
<feOffset dy="4"/>
<feGaussianBlur stdDeviation="2"/>
<feComposite in2="hardAlpha" operator="out"/>
<feColorMatrix type="matrix" values="0 0 0 0 0 0 0 0 0 0 0 0 0 0 0 0 0 0 0.25 0"/>
<feBlend mode="normal" in2="BackgroundImageFix" result="effect1_dropShadow_20_295"/>
<feBlend mode="normal" in="SourceGraphic" in2="effect1_dropShadow_20_295" result="shape"/>
</filter>
</defs>
</svg>
